# xmcd CD database file
#
# Track frame offsets:
#	150
#	13690
#	35585
#	51010
#	60612
#	72822
#	85735
#	97137
#	111220
#	124662
#	161145
#	180097
#	197662
#	207955
#	218372
#	229015
#	240760
#	250525
#	260575
#	274107
#	285492
#
# Disc length: 3953 seconds
#
# Revision: 0
# Processed by: cddbd v1.5.2PL0 Copyright (c) Steve Scherf et al.
# Submitted via: CDex 1.51
#
DISCID=180f6f15
DTITLE=King Curtis - Trouble In Mind/It`S Party Time
DYEAR=1961
DGENRE=Blues
TTITLE0=Trouble In Mind
TTITLE1=Jivin` Time
TTITLE2=Nobody Knows You When You`re Down And Out
TTITLE3=Bad, Bad Whiskey
TTITLE4=I Have To Worry
TTITLE5=Woke Up This Morning
TTITLE6=But That`s Alright
TTITLE7=Ain`t Nobodys Business
TTITLE8=Don`t Deceive Me
TTITLE9=Deep Fry
TTITLE10=Free For All
TTITLE11=Easy Like
TTITLE12=Hot Saxes
TTITLE13=I`ll Wait For You
TTITLE14=The Party Time Twist
TTITLE15=Low Down
TTITLE16=Keep Movin`
TTITLE17=(Let`s Do) The Hully Gully Twist
TTITLE18=Slow Motion
TTITLE19=Firefly
TTITLE20=Something Frantic
EXTD=YEAR: 1961
EXTT0=
EXTT1=
EXTT2=
EXTT3=
EXTT4=
EXTT5=
EXTT6=
EXTT7=
EXTT8=
EXTT9=
EXTT10=
EXTT11=
EXTT12=
EXTT13=
EXTT14=
EXTT15=
EXTT16=
EXTT17=
EXTT18=
EXTT19=
EXTT20=
PLAYORDER=
